<?xml version="1.0" encoding="utf-8"?>
<!-- Generator: Adobe Illustrator 24.3.0, SVG Export Plug-In . SVG Version: 6.00 Build 0)  -->
<svg version="1.1" id="Layer_1" xmlns="http://www.w3.org/2000/svg" xmlns:xlink="http://www.w3.org/1999/xlink" x="0px" y="0px"
	 viewBox="0 0 512 512" style="enable-background:new 0 0 512 512;" xml:space="preserve">
<style type="text/css">
	.st0{fill:#F9DC3E;}
</style>
<g id="XMLID_1_">
	<path id="XMLID_2_" d="M351.05,174.17l-0.14-1.12l-1.82,0.14l0.14,1.12L351.05,174.17z M362.96,202.9v0.56l1.26-0.14
		c0-0.42,0.14-0.98,0.42-1.68l-0.14-1.12C364.08,200.66,363.52,201.5,362.96,202.9z M316.43,239.06c-0.14-0.98-3.22-5.05-9.53-11.91
		c-0.14-1.26,2.1-3.22,6.45-5.75l12.61-10.93c2.8-3.64,4.49-9.39,5.05-17.52l-0.14-1.82c-0.56-5.61-4.49-10.09-12.19-13.6
		c-4.49-3.08-12.75-4.77-24.53-5.05c-9.81,0.84-22.43,4.34-38.12,10.51c-4.34,3.08-9.25,6.17-14.72,9.25l0.14,0.98
		c0.28,0,0.84-0.28,1.54-0.7c0.7-0.14,0.98,0.28,1.12,0.84l0.98-0.56h0.42v0.42c0,0.56-3.36,3.22-10.23,7.99l0.56,0.98h-0.42
		l-1.12-0.42c0,0.28-0.42,0.56-1.4,0.7v0.42l1.12,1.4c-0.28,0-0.84-0.14-1.54-0.42c-1.54,0.14-3.08,0.98-4.63,2.52l0.7-2.8
		c2.24-9.95,3.92-18.78,4.77-26.35l-0.14-0.56c-1.54-0.98-3.08-2.52-4.63-4.2c0-1.12,0-1.82,0-1.96l-0.14-0.42l-0.42,0.14
		c-5.05,7.43-14.58,20.18-28.87,38.26c-10.79,12.89-16.4,20.04-16.82,21.44c-4.49,4.63-6.59,7.29-6.31,8.27
		c-1.12,0.7-1.68,1.54-1.54,2.38c-0.28,0.14-0.56,0-0.7-0.42c-1.82,3.08-4.63,5.05-8.41,5.89l-3.92,0.84
		c-0.56,0.14-0.84,0.56-0.7,1.12l0.14,0.56l1.54-0.28l0.14,0.42l-3.36,1.26l-5.89,1.4l-3.08,0.14c-0.42,0.42,2.52,0,1.26,0.28
		l-3.78,0.84c-2.38,0.56-3.64,0.28-3.78-0.56l-0.42,0.14c0.14,0.42,0.14,0.7,0,0.98l-0.28-0.98l-3.08,0.7
		c-0.28-1.4-4.49-6.59-12.47-15.7c-0.14-1.68,2.66-4.2,8.55-7.57l16.54-14.58c3.64-4.77,5.89-12.33,6.59-22.85l-0.28-2.52
		c-0.7-7.43-6.03-13.32-16.12-17.94c-6.03-4.06-16.68-6.17-32.24-6.59c-12.89,1.12-29.57,5.61-50.32,13.6
		c-5.61,4.06-12.19,8.13-19.34,12.19l0.14,1.26c0.56,0,1.12-0.28,1.96-0.7c0.84-0.14,1.26,0.28,1.4,1.12l1.26-0.7h0.7v0.56
		c0,0.56-4.49,4.06-13.6,10.51l0.7,1.12h-0.7l-1.4-0.56c0,0.42-0.56,0.7-1.96,0.7l0.14,0.7l1.54,1.68c-0.42,0-1.12-0.14-2.1-0.42
		c-2.94,0.28-5.89,2.38-8.69,6.45l0.7,1.12c2.52-2.24,3.92-3.36,4.34-3.5l0.14,1.82c-0.42,0-1.12,0.28-1.96,0.7l1.54,2.38
		c2.94-3.22,6.31-6.03,9.81-8.27c1.82,0.42,2.66,0.98,2.8,1.68l1.4-0.14c9.81-7.15,19.34-12.47,28.87-15.7l0.14,1.26
		c-1.82,2.66-2.94,4.06-3.64,4.06c0.14,0.84,0.42,1.68,0.98,2.38c0.14,1.68-4.2,12.61-13.03,32.8
		c-20.04,47.09-36.72,81.85-50.46,104.42c0,0.42,0.28,1.12,0.84,1.82c3.36-0.84,5.47-1.68,6.45-2.38l0.7-0.14l0.14,1.26l1.26-0.14
		l1.26-0.7c0,0.42,0.42,0.56,1.26,0.56l0.14,1.26c0.14,1.26-0.56,3.08-2.1,5.75c-1.4,1.54-2.8,4.77-4.34,9.81v0.56l1.26-0.14
		c5.47-6.03,9.53-12.05,12.33-17.94c15.84-4.63,27.89-9.25,36.3-13.74c8.41-0.7,14.86-2.94,19.2-6.59l-0.14-0.7l-3.22,0.98
		l-0.7,0.14l-0.14-0.7c6.17-0.98,10.51-2.24,12.89-4.2c12.05-9.25,21.16-15.84,27.33-19.76c12.61-9.25,20.88-18.36,24.67-27.19
		c0.7-0.14,1.4-0.28,2.1-0.56c1.82-0.14,2.8-0.14,3.08-0.14c-0.14-0.28,0.14-0.56,0.42-0.56c2.8-0.28,1.54,0.14,3.22-0.28l4.77-1.12
		c-0.28,0.14-0.42,0.28-0.28,0.56l0.7-0.42c-0.14,0-0.28,0-0.42-0.14l0.84-0.14l-0.42,0.28c0.56,0.14,1.12,0,1.68-0.14l0.28,1.4
		l-21.58,34.48l-4.77,6.03l-2.38,7.85l0.42-0.14l2.38-0.98l-0.7,3.08l0.28,0.84l0.7,0.84c-0.28,0.14-0.42,0.28-0.28,0.56l0.14,0.56
		l0.98-0.28c1.4-1.26,2.1-2.38,1.82-3.36c1.54,0.28,2.52,0.42,3.08,0.28l0.14,0.42c-0.98,0.28-1.4,0.98-1.54,2.24l0.14,0.56
		l0.56-0.14c7.85-8.55,27.19-37.98,42.61-57.89c-0.56-2.1,7.57-5.19,24.25-8.97l0.56-0.14c0.56,2.66-0.7,8.97-3.78,18.92
		c-2.1,6.03-3.08,9.39-2.8,9.95c-2.66,7.99-3.92,12.33-3.78,13.03l-5.89,19.34c-3.78,9.95-6.73,20.32-8.83,31.26
		c0.28-0.14,0.84,0,1.68,0.14l0.84-0.7c0.14,0.28,0.28,0.42,0.7,0.42l-0.28-1.4l2.52-0.14c0.7-0.14,1.4-1.12,1.96-2.8
		c-0.14-2.66,0.42-4.06,1.54-4.34c1.54-6.17,2.52-9.25,2.94-9.39c1.54-6.17,2.52-9.67,3.22-10.51c2.24-7.99,3.78-12.19,4.91-12.33
		l0.28,0.98l-1.68,4.2c-2.8,12.61-5.75,22.57-8.55,29.85l0.84,3.64l0.56-0.14c7.01-15.14,17.1-44.99,30.27-89.84
		c0.42-3.92,2.24-7.01,5.61-9.11l-0.7-0.84l-0.14-0.42c1.54-0.28,2.52-0.98,3.22-1.82c-0.14-0.28-1.4-0.84-3.92-1.54l6.59-28.17
		c1.4-1.26,2.24-1.96,2.52-1.96l0.14,1.4c-0.28,0-0.84,0.28-1.54,0.7l1.26,1.82c2.24-2.52,4.77-4.63,7.43-6.31
		c1.4,0.42,2.1,0.84,2.1,1.26l0.98-0.14c7.43-5.47,14.86-9.39,22-11.77l0.14,0.98c-1.26,1.96-2.24,3.08-2.66,3.08
		c0.14,0.7,0.28,1.26,0.56,1.82c0.14,1.26-3.08,9.53-9.81,24.95c-15.14,35.74-27.89,62.09-38.26,79.33c0,0.28,0.28,0.84,0.7,1.4
		c2.52-0.56,4.2-1.26,4.77-1.82h0.42l0.14,0.98l1.12-0.14l0.98-0.56c0,0.28,0.42,0.42,0.98,0.28l0.14,0.98
		c0.14,0.84-0.42,2.38-1.68,4.34c-1.12,1.12-2.24,3.64-3.5,7.43v0.56l0.98-0.14c4.06-4.63,7.29-9.11,9.39-13.6
		c12.05-3.5,21.16-7.01,27.61-10.37c6.45-0.56,11.35-2.24,14.72-5.05v-0.56l-2.52,0.7h-0.56v-0.56c4.63-0.7,7.99-1.68,9.81-3.08
		c9.11-7.01,16.12-12.05,20.74-15C310.4,259.1,317.27,248.87,316.43,239.06z M313.91,239.76l0.28,3.78c-0.42,0.98-0.98,1.4-1.4,1.54
		l-0.56-6.45C313.35,238.92,313.91,239.34,313.91,239.76z M27.84,208.93h-0.7L27,207.81l2.66-0.28v0.56
		C29.38,208.23,28.68,208.51,27.84,208.93z M15.09,336.33c-1.54-0.7-2.8-0.98-4.06-0.84l-0.14-1.82c-0.14-0.7,0.28-1.26,1.26-1.4
		c0.84-0.14,1.26,0.56,1.4,1.68c2.24-2.66,3.36-4.06,3.64-4.06l1.4,0.56C18.17,334.23,16.91,336.19,15.09,336.33z M151.18,194.07
		c-0.7,0.14-1.96-1.96-3.78-5.89l-0.14-1.12c1.26-0.14,2.52,1.82,3.78,5.89L151.18,194.07z M149.36,179.91l-0.56,1.26l-18.5-7.71
		C142.63,173.89,149.08,175.99,149.36,179.91z M71.29,246.91l-2.66,0.28l-0.14-1.12l2.66-0.28L71.29,246.91z M69.19,206.68h0.7
		l0.14,1.82c-0.56,0-1.4,0.98-2.38,2.66l-0.14-1.26C68.63,208.51,69.33,207.39,69.19,206.68z M63.72,219.58L64,222.1h-0.7
		l-0.28-2.52H63.72z M60.92,224.2l1.26-0.14c-0.14,2.1-0.7,3.08-1.68,3.22h-0.7C60.64,226.03,60.92,224.91,60.92,224.2z
		 M58.68,230.65l0.7-0.14v0.56l-1.12,1.96l-1.26,0.14v-0.56C58.26,232.47,58.82,231.91,58.68,230.65z M56.57,236.4l-0.42,3.08h-0.7
		l-0.28-3.08H56.57z M35.41,296.67c-0.84,4.2-1.68,6.45-2.66,6.45v-0.56C32.47,300.45,33.31,298.49,35.41,296.67z M31.49,305.08
		v0.56c0.14,0.84-0.28,1.26-1.12,1.4v-0.56C30.36,305.78,30.64,305.36,31.49,305.08z M30.36,322.6l1.96-0.14l0.14,0.7
		c-0.42,0-1.12,0.28-1.96,0.7L29.24,324C29.1,323.3,29.52,322.88,30.36,322.6L30.36,322.6z M86.29,305.36
		c-11.07,5.47-17.52,9.11-19.48,11.07c-11.91,4.2-17.94,6.73-17.8,7.71c-10.65,4.2-17.66,7.29-21.02,9.25
		c-0.84,0.14-1.96-0.28-3.5-0.84c-0.14-2.1,0.84-3.92,2.8-5.33c1.82-0.14,3.64,0.14,5.33,0.84c1.96-0.98,5.47-2.1,10.23-3.36
		l-0.14-1.26l-3.92,0.28c0.42-0.7,4.2-2.52,11.35-5.33l1.96-0.14v0.56c-3.36,0.28-5.19,1.26-5.61,3.08c0.14,0.84,0.56,1.12,1.4,1.12
		c2.52-1.54,3.78-2.52,3.78-2.8c4.77-0.84,18.08-7.85,39.81-20.88l0.14,1.12C91.89,301.01,90.07,302.55,86.29,305.36z M52.93,316.29
		c3.22-0.28,5.89-1.54,8.13-3.78c0.84-0.14,1.4,0.28,1.4,1.12c-1.54,0.14-4.49,1.4-8.83,3.92h-0.7V316.29z M106.75,274.94
		l-16.68,13.17c-12.33,8.13-19.06,12.19-20.04,12.33c-19.76,10.79-31.96,16.54-36.72,16.96l-0.7,0.14
		c0.56-2.24,9.39-20.18,26.35-53.96c7.43-0.7,19.2-4.06,35.32-10.51l3.92-0.28c8.13-0.7,14.16,0.84,18.22,4.63l0.28,2.52
		C113.62,268.49,110.4,273.54,106.75,274.94z M74.23,256.72l2.66-0.28V257l-2.66,0.28V256.72z M111.8,250.27l1.96-0.14
		c1.82,0.84,2.8,1.68,2.8,2.24v0.56C114.88,253.22,113.34,252.24,111.8,250.27z M117.12,220c-1.68,2.1-6.45,5.61-14.3,10.65
		c-2.52,0.28-12.19,3.92-28.73,11.21c-0.84-0.42-1.68-0.56-2.66-0.42l-0.14-1.12c-0.14-2.38,0.84-5.33,3.22-8.97
		c1.26-6.87,2.66-10.65,4.2-11.63l13.74-30.98c-0.14-1.96,2.8-3.36,8.83-4.49l1.96-0.14l0.14,1.82c5.89-0.84,9.67-1.4,11.07-1.54
		c10.93-0.98,16.68,1.26,17.1,6.59l1.26-0.14l-0.28-3.08l1.4-0.14c3.22,1.82,4.91,3.92,5.19,6.45c0.14,1.68-0.84,3.92-2.8,6.45
		c-0.84,0.14-1.26-0.56-1.4-1.68l-1.4,0.14l-0.28,3.78c-5.61,8.27-9.53,12.61-12.05,12.75C119.08,218.32,117.68,219.86,117.12,220z
		 M125.67,241.72c-1.12-0.7-2.1-1.12-2.66-1.12l-0.14-1.82l1.26-0.14l2.8,1.68C126.93,241.16,126.51,241.58,125.67,241.72z
		 M134.36,252.1c1.26,0.56,1.96,0.98,2.1,1.54l-0.56,0.14l0,0c-0.14,0-0.28,0-0.42,0.14l-0.84,0.7L134.36,252.1z M135.2,257.28
		l-0.14-0.56l1.54-0.42l0.14,0.56L135.2,257.28z M138.99,261.49c1.68-0.28,2.38-0.42,5.47-1.12l0.14,0.56l-5.75,1.26
		C138.99,262.05,138.99,261.77,138.99,261.49z M144.59,263.87c-2.38,0.28-1.82-0.14-5.75,0.84l-0.14-0.56l4.77-1.54l2.24-0.56
		l0.28,0.84C145.15,263.31,145.86,263.31,144.59,263.87z M149.78,262.75c-0.56,0.14-0.98-0.14-1.26-0.7l1.54-0.28
		c0.7-0.14,1.12,0.14,1.26,0.7L149.78,262.75z M163.52,247.89l-0.14-0.56l2.38-0.56l0.28,0.84L163.52,247.89z M178.37,338.43
		c0.14-0.7,0.14-1.12,0.14-1.54l0.56-0.14c0.7-0.14,0.98,0.14,1.12,0.7l0.14,0.56L178.37,338.43z M188.74,251.68l-1.12-0.14
		c-1.68,0.7-3.08,1.12-4.34,1.4l-0.98,0.28c-0.56,0.14-0.98-0.14-1.26-0.7l6.87-1.54l2.24-1.12l0.7,0.84
		C190.01,250.97,189.16,251.26,188.74,251.68z M194.07,249.99l-0.14-0.42c0.28-0.14,0.84-0.28,1.26-0.84l4.91-1.12l0.14,0.56
		C197.57,248.73,195.47,249.29,194.07,249.99z M194.77,240.04c-0.28,0.14-0.84,0.42-1.4,0.84c-0.14-0.28-0.7-0.28-2.1,0
		c-0.28-0.98,3.36-2.24,10.93-4.06l1.12-0.28l0.28,0.84C198.27,239.06,195.33,239.9,194.77,240.04z M207.95,225.75
		c-0.56,6.03-2.66,9.39-6.45,10.23l-0.14-0.56l-3.36,1.26l-1.54,0.28c-0.7,0.14-1.4,0.14-2.1,0l-0.28-1.26
		c-0.14-0.56,4.63-7.15,14.44-19.9l1.12,0.14C210.33,217.9,209.77,221.12,207.95,225.75z M231.35,205.84h-0.42l-0.14-0.98l1.96-0.14
		v0.56C232.47,205.28,232.05,205.42,231.35,205.84z M221.82,302.55c-1.12-0.56-2.1-0.7-3.08-0.7l-0.14-1.4
		c0-0.42,0.28-0.84,0.84-0.98c0.7-0.14,0.98,0.42,1.12,1.4c1.68-2.1,2.52-3.08,2.66-3.08l0.98,0.42
		C223.92,300.87,223.08,302.41,221.82,302.55z M325.12,194.49c-0.56,0-1.4-1.54-2.94-4.49l-0.14-0.98c0.98-0.14,1.96,1.4,2.94,4.49
		L325.12,194.49z M323.72,183.7l-0.42,0.98l-14.02-5.89C318.53,179.07,323.44,180.76,323.72,183.7z M264.43,234.58l-1.96,0.14
		l-0.14-0.98l1.96-0.14L264.43,234.58z M262.75,204.02h0.56l0.14,1.4c-0.42,0-1.12,0.7-1.82,2.1l-0.14-0.98
		C262.47,205.42,262.89,204.58,262.75,204.02z M258.68,213.83l0.14,1.82h-0.56l-0.14-1.82H258.68z M256.44,217.34l0.98-0.14
		c-0.14,1.54-0.56,2.38-1.26,2.52h-0.56C256.16,218.74,256.44,217.9,256.44,217.34z M254.9,222.24h0.42v0.42l-0.84,1.54l-0.98,0.14
		v-0.56C254.48,223.64,254.9,223.08,254.9,222.24z M253.22,226.59l-0.28,2.38h-0.42l-0.14-2.38H253.22z M237.1,272.42
		c-0.7,3.22-1.26,4.77-2.1,4.91v-0.42C235,275.22,235.56,273.68,237.1,272.42z M234.16,278.73v0.42c0.14,0.7-0.28,1.12-0.84,1.12
		v-0.56C233.17,279.29,233.45,279.01,234.16,278.73z M233.31,292.04l1.54-0.14v0.56c-0.28,0-0.84,0.28-1.54,0.56l-0.98,0.14
		C232.33,292.6,232.61,292.18,233.31,292.04z M275.78,279.01c-8.27,4.06-13.32,6.87-14.86,8.41c-9.11,3.22-13.6,5.19-13.46,5.89
		c-7.99,3.22-13.32,5.47-15.84,7.01c-0.56,0-1.54-0.14-2.66-0.7c-0.14-1.68,0.56-2.94,2.24-3.92c1.4-0.14,2.8,0.14,4.06,0.56
		c1.54-0.7,4.06-1.54,7.85-2.52l-0.14-0.98l-3.08,0.28c0.42-0.56,3.22-1.82,8.69-4.06l1.54-0.14v0.42
		c-2.52,0.28-4.06,0.98-4.34,2.38c0,0.56,0.42,0.84,1.12,0.84c1.82-1.26,2.8-1.96,2.8-2.24c3.64-0.7,13.74-5.89,30.13-15.84
		l0.14,0.98C279.99,275.64,278.59,276.9,275.78,279.01z M250.41,287.28c2.52-0.28,4.49-1.12,6.31-2.8c0.7-0.14,0.98,0.28,1.12,0.84
		c-1.12,0.14-3.36,1.12-6.73,2.8h-0.56L250.41,287.28z M291.34,255.88l-12.61,10.09c-9.39,6.17-14.58,9.25-15.28,9.39
		c-15,8.27-24.25,12.47-27.89,12.75H235c0.42-1.68,7.15-15.28,20.04-40.93c5.61-0.56,14.58-3.22,26.77-7.99l3.08-0.28
		c6.17-0.56,10.79,0.7,13.74,3.64l0.14,1.82C296.53,250.83,294,254.76,291.34,255.88z M266.53,242l1.96-0.14v0.56l-1.96,0.14V242z
		 M295.26,237.1l1.54-0.14c1.4,0.7,2.1,1.26,2.1,1.82v0.42C297.65,239.34,296.39,238.64,295.26,237.1z M299.19,214.11
		c-1.26,1.54-4.91,4.34-10.79,8.13c-1.96,0.14-9.25,2.94-21.72,8.41c-0.56-0.28-1.26-0.28-1.96-0.28l-0.14-0.98
		c-0.14-1.82,0.7-4.06,2.38-6.87c0.98-5.19,2.1-8.13,3.22-8.83l10.51-23.55c-0.14-1.4,2.1-2.52,6.59-3.36l1.54-0.14l0.14,1.4
		c4.49-0.7,7.29-1.12,8.41-1.26c8.27-0.7,12.61,0.98,13.03,5.05l0.98-0.14l-0.14-2.24l0.98-0.14c2.38,1.26,3.64,2.94,3.78,4.77
		c0.14,1.4-0.56,3.08-1.96,4.91c-0.7,0.14-0.98-0.42-1.12-1.4l-0.98,0.14l-0.28,2.8c-4.2,6.45-7.29,9.67-9.25,9.81
		C300.73,212.85,299.61,214.11,299.19,214.11z M303.53,229.81l-0.14-1.4l0.98-0.14l2.1,1.26c0,0.56-0.28,0.98-0.84,0.98
		C304.8,230.09,304.09,229.81,303.53,229.81z M127.77,321.61l-0.98,0.28l-0.84,0.7c0.14,0.56,0.56,0.84,1.12,0.7
		c0.7-0.14,0.84-0.56,0.7-1.12V321.61z M123.99,314.19l0.14,0.56c0.7-0.14,0.84-0.56,0.7-1.12l-0.14-0.56
		C124.13,313.21,123.85,313.49,123.99,314.19z M150.62,250.83l1.12-0.28l-0.28-0.98l-1.12,0.28L150.62,250.83z M493.45,279.71
		c-11.49,2.52-12.89,2.1-15.28,2.24l0.14,0.98l1.12-0.14h0.56l-0.14-0.14l1.26-0.56c11.35-1.26,12.75-0.84,12.61-2.1L493.45,279.71z
		 M431.5,287.84l0.14,0.98h0.14l-0.14-0.98H431.5z M424.49,262.89l-0.98-0.28c-0.84,2.24-1.26,3.5-1.26,3.92v0.42
		C423.09,266.95,423.79,265.55,424.49,262.89z M495.69,279.43l0.14,0.98l1.68,0.28l-0.14-0.98L495.69,279.43z M417.62,288.96
		l-2.52-0.28l-0.42,0.98v0.56l15.28-1.26l-0.14-0.98L417.62,288.96z M410.62,255.46v-0.56h-0.56l-0.98,0.56l0.56,0.84
		C410.33,256.44,410.76,256.16,410.62,255.46z M502.98,272.56l0.7-0.14c0.42,0,0.56-0.42,0.56-0.98l-0.42-0.84
		c-2.66,0.28-3.78,0.28-5.89,1.54v-0.56l-3.08,0.28c-0.14-0.98-0.28-1.4-0.7-1.4l-1.68,0.14c-1.82,0.14-2.8,0.14-3.78,0.84
		c0-0.28-0.14-0.56-0.28-0.56l-1.82,0.14l-1.12,0.56c0-0.28-0.14-0.56-0.28-0.56l-0.7,0.56v-0.56l-2.52-0.14h-0.56l0.14,0.98
		l1.26,0.28l1.26-0.14c0.42,0.28,0.84,0.28,1.4,0.28l1.12-0.56v0.42c-5.89,1.54-5.89,1.26-9.95,1.82c-0.42-0.28-0.84-0.42-0.98-0.42
		l-0.14,0.14c-0.42,0-0.7-0.28-0.7-0.84l2.1-0.28c0.14,0,0.28,0.14,1.4,0.42c1.68-0.84,1.82-1.12,2.66-1.26l-0.14-0.98
		c-5.89,1.12-3.5,0.42-10.79,0.98h-0.28l-0.14-0.98c9.39-1.12,6.17-0.56,9.39-1.4c0,0.28,0.14,0.56,0.28,0.56
		c0.42-0.42,0.84-0.56,1.26-0.7h0.7c3.22-0.28,4.34,0.42,10.93-1.4v0.42l1.12-0.56l0.98-0.14c-0.14-0.98,1.4-1.12,1.82-1.12
		l-0.14-0.98c-11.35,2.24-14.44,1.68-17.52,2.52v-0.42c-2.94,0.56-3.08,0.28-3.78,0.28c-0.28,0-0.56,0.28-0.98,0.56
		c0-0.28-0.14-0.56-0.42-0.56c-0.14,0-0.14,0-0.14,0l-9.67,1.54c0-0.28-0.14-0.42-0.42-0.42c-5.05,1.12-3.64,1.26-10.37,1.82
		c-0.28,0-0.7,0.14-1.26,0.56c0-0.28-0.14-0.42-0.56-0.42l-4.06,0.28l-2.8,0.7c0-0.28-0.14-0.42-0.56-0.42
		c-1.54,0.42-2.94,0.7-4.06,0.7h-0.14c-0.7,0.14,0.28-0.14-0.14-0.42l-0.84,0.56c-1.26,0.14-0.56-0.14-4.77,0
		c-7.29,0.84-6.45,0.98-7.29,1.12l-2.66-0.14c0,0.28-0.14,0.42-0.42,0.42c-3.08-0.42-4.63-0.84-4.77-1.54
		c0.42-2.94,1.12-4.49,2.1-4.49h0.56l-0.42,0.98h0.56c0.98-0.56,1.4-0.98,1.4-1.54l-0.14-0.98l-0.98,0.14l0-0.28
		c-0.14-0.7,0-1.4,0.28-1.82l2.24-3.64l0.14,0.98l1.12-0.14l-0.14-0.98l-0.56-0.84c0.84-0.7,1.4-1.12,1.82-1.12v-0.56l-1.4,0.14
		l-0.14-1.4c2.8-6.03,4.2-9.39,4.2-10.37l0.98,0.42c0.7,0,0.98-0.42,0.84-1.12l-0.98,0.14v-0.42c-0.14-0.7,0.14-1.4,0.42-1.96
		c1.54-1.68,2.24-3.22,2.1-4.91c0.28,0,0.42,0.14,0.56,0.42c1.26-0.7,2.38-2.8,3.08-6.03c2.38-4.2,5.61-12.75,9.95-25.37
		c8.27-22.43,7.99-24.81,9.11-29.99l-0.98,0.14c0.14,0.7-0.14,1.26-0.42,1.96c-0.7-0.28-1.26-0.42-1.54-0.42v-0.42
		c-0.14-1.96,0.7-4.2,2.52-7.01h0.42l0.84,3.22l0.98-0.14c0-0.28,0.28-1.54,0.7-3.92c0-0.56-0.42-0.84-1.12-0.84l-0.98,0.56
		c-0.14-0.7,0-2.52,0.14-5.33h-0.56c-0.84-0.84-1.26-1.54-1.26-2.1l-5.47,0.56c0-0.42-0.28-0.98-0.56-1.68
		c0-0.56,1.12-0.98,3.64-1.54l1.12,0.42l0.98-0.56c0,0.28,0.28,0.56,0.56,0.42l0.98-0.56c0,0.28,0.28,0.42,0.56,0.42h0.56
		l-0.14-1.12c-0.7,0.14-2.8,0.14-5.89,0l-0.98,0.7v-0.56c-25.37,2.1-39.81,3.22-43.17,3.64c-0.42,0-2.24,0-5.33-0.14
		c0,0.42-0.28,0.7-1.12,0.7l-1.12-0.56l-3.64,0.98c-0.84,0.14-2.38,0-4.34-0.14c-0.56,0.42-1.26,0.7-2.1,0.84
		c-0.42,0,5.47-0.28,10.79-0.7c-0.56,0.42-1.4,0.7-2.66,0.84c-0.84,0.14-1.54,0-2.1-0.42c-0.84,0.42-3.5,0.98-7.99,1.82l-1.12-0.42
		l-17.66,2.66c-0.7-0.28-1.54-0.42-2.38-0.42c-0.98,0.14-2.52,0.42-4.77,0.98l-8.55,3.5l0.7,1.12c0.42,0,0.98-0.28,1.68-0.7
		l3.08,0.28l-0.42,2.8c-2.8,1.26-4.49,3.08-4.91,5.47c-4.2,1.82-6.31,3.22-6.31,3.92v0.56h0.7l1.12-0.56l1.26,1.54l0.14,2.24
		c0.14,0.7-7.01,15.56-21.16,44.57c-12.19,27.89-18.64,43.31-19.2,45.97c-4.2,1.12-6.59,2.8-7.29,5.19c0.14,0.7,1.26,1.26,3.78,1.4
		l0.14,1.12l-1.12,1.82l0.14,2.24c0.14,1.12,3.22,1.96,9.25,2.66c0-0.42,0.14-0.56,0.56-0.7c0.14,1.4-0.28,4.06-1.12,7.99h0.7
		c2.52-3.36,3.64-5.75,3.5-7.01h0.56c0.56,0,1.26,0.7,1.96,2.1c-0.7,0.28-3.36,6.31-7.99,18.08l0.7,1.12h0.7
		c5.61-14.02,8.97-21.86,10.51-23.27c7.29-0.7,19.9-1.96,37.84-3.78l1.12-0.7c0,0.42,0.28,0.56,0.7,0.56l1.12-0.14l1.12-0.7
		c0,0.42,0.28,0.56,0.7,0.56l13.6-1.12c3.64-0.28,5.33-1.4,5.19-3.22c0-0.56,2.1-1.12,6.31-1.68c0.42,0,0.98,0.14,1.82,0.28
		c0-0.28,2.1-0.7,6.45-1.12c0.14-2.24,0.84-3.5,2.1-3.64l-0.14-1.12c-1.26,0.14-2.52,0.42-4.2,0.98c-2.8-0.14-4.63-0.42-5.47-0.7
		c-0.7,0.42-1.26,0.7-1.68,0.7l-9.39,0.28l-1.12,0.56c0-0.28-0.28-0.56-0.7-0.42h-0.56l-1.26,0.56c0-0.28-0.98-0.56-2.94-0.84
		l-1.26,0.7l-2.38,0.14v-0.56c12.19-1.26,18.22-2.94,18.08-4.91c0.84-0.14,1.26,0.28,1.26,1.12l3.5-0.84l-0.14-1.12l-29.15,0.84
		c0,0.42-0.14,0.56-0.56,0.7l-3.5-0.28c-0.84,0.14-1.68,0.28-2.24,0.84l-1.26-0.56c-3.64,0.28-6.45,0.7-8.13,1.26
		c-2.52-0.14-5.19-0.14-8.27,0.14l-6.59,0.56l-3.08-0.28c-0.14-1.96,3.64-11.35,11.35-28.45c2.24-5.75,4.2-9.39,6.17-10.65
		c0.42,0,0.98,0.14,1.82,0.42l4.63-1.54l2.38,0.42c4.06-0.28,8.69-1.54,14.02-3.5c1.26-0.14,2.24,0,3.08,0.28l3.5-0.84l10.51-0.84
		c4.49-0.42,9.39-1.4,14.72-2.94l-0.14-1.12c-1.96,0.14-2.94-0.14-3.08-0.98c-0.14-1.54-1.54-2.1-4.34-1.82l-0.14-1.12l2.94-0.84
		l7.57-0.7l-0.14-1.12c-0.28,0-1.82,0-4.77-0.14l-0.14-1.12l2.94-0.28c0.84-0.14,1.12-0.42,1.12-1.26
		c-3.92,0.14-6.03-0.14-6.03-0.56c-27.61,1.4-41.49,1.68-41.63,0.7c-0.42,0-0.98,0.28-1.68,0.7l-0.7-1.12
		c7.29-15.56,11.63-23.41,12.89-23.55c0,0.56-0.28,1.54-0.98,2.94v0.42l1.12-0.14c2.94-7.01,5.33-10.51,7.43-10.65
		c8.69-0.7-1.26-1.26,17.38-4.2c0.7,0.28,1.26,0.56,1.68,0.42c7.29-1.54,17.52-3.08,30.55-4.63l-0.14-1.12l-7.01,0.7l-0.14-1.12
		c0.84-0.14,1.54-0.28,2.1-0.84v0.56c0.42,0,0.84-0.28,1.54-0.7c1.26-0.14,2.1,0,2.8,0.28c2.38-0.7,4.34-0.98,5.89-1.12l4.34-0.42
		c1.12-0.7,1.54-1.26,1.54-1.82v-0.56c-1.12,0.14-2.38,0-3.78-0.28c0-0.56,0.28-0.98,0.98-1.26l8.13-0.7l3.64-0.98
		c0,0.42,0.28,0.56,0.56,0.56c0.42,0,0.84-0.28,1.54-0.7c0.14,0,0.42,0,0.56,0.14c-0.56,0.98-1.12,2.52-1.68,4.49l-1.12,0.14
		c-0.14-0.7-0.28-1.4-0.56-1.96h-0.56c-9.81,27.33-14.16,40.09-23.27,61.11c-1.68,5.33-3.08,8.41-4.2,8.97
		c0,0.56,0.42,0.84,1.12,0.84c0.28,2.66-0.42,5.19-1.82,7.85c-4.2,12.05-7.01,18.64-8.41,19.9l0.98,5.75c0,0.56-0.28,0.98-0.84,0.98
		l-0.98,0.14c-0.14-1.54-0.7-2.38-1.68-2.24h-0.56c-1.26,1.96-2.24,4.34-2.94,7.01l0.98-0.14c1.26-0.84,1.96-1.82,1.82-3.08
		l1.96-0.14l1.12,0.42c-0.84,1.4-1.26,2.52-1.26,3.5l0.56,0.84l-1.26,3.08v0.56c1.12-0.14,2.38,0.28,3.64,1.12
		c0.84-0.14,1.82-0.56,2.94-1.26c1.12-0.14,5.33-0.14,12.61-0.14l3.64-1.26c4.49,0,5.19,0.14,8.97-0.28l1.54-0.14l0.84-0.56v0.56
		c4.06-0.28,4.34-0.14,7.43,0.28v0.56l-2.24,0.14l0.14,0.98c0.7-0.14,1.26-0.28,1.82-0.7c0.56,0,0.84,0.28,0.98,0.98
		c-0.84,0.14-1.96,0.28-3.08,0.7l-0.98-0.28c-1.54,0.42-1.26,0.56-2.24,0.56l-1.54-0.28c0,0.28-0.14,0.42-0.42,0.42
		c0,0.56,0.42,0.84,0.98,0.84l1.54-0.14l8.27-0.7l3.08-0.7c0,0.28,0.14,0.42,0.42,0.42l1.54-0.56l2.8-0.28
		c2.24-0.14,2.1-0.28,6.87-1.12c0-0.28,0.14-0.42,0.28-0.42v0.42c7.71-1.26,8.27-1.4,9.53-1.82l0.14,0.28
		c1.96-0.42,0.84-0.28,1.4-0.7c0,0.28,0.14,0.56,0.28,0.56l1.4-0.14l-0.14-0.98h-2.8v-0.14c-0.14,0-0.14,0-0.28,0.14h-0.42v0.14
		c-1.82,0.42-1.82,0.14-3.08,0.28l-6.87,0.42v-0.56l3.78-0.56l1.4-0.14l0.84-0.56v0.56c5.47-0.42,7.43,0.84,32.52-4.49
		c1.4-0.14,1.26-1.26,2.1-3.64c-0.42,0-0.84-0.14-1.26-0.28c-2.1,0.84-3.22,0.42-7.15,1.12c-0.28,0-0.56-0.28-0.7-0.84v-0.42
		l3.78,0.14c0.7-0.14,2.1-0.14,4.2-1.4C503.26,272.42,502.56,272.56,502.98,272.56z M316.99,275.5l-1.82,0.14
		c-0.14-0.7,0.84-3.5,2.8-8.13l1.12-0.14C319.23,268.49,318.53,271.16,316.99,275.5z M319.09,266.81v-0.56
		c0-0.56,0.28-0.98,1.12-1.26v0.56C320.35,266.39,319.93,266.81,319.09,266.81z M342.78,285.17v0.42l-2.94,0.28v-0.56L342.78,285.17
		z M339.13,284.75c0,0.56-0.84,1.26-2.8,1.96l-3.64-0.28l-1.12,0.14l-0.14-1.12L339.13,284.75z M363.1,174.87l-1.82,0.14v-0.56
		c0-0.56,0.28-0.98,1.12-1.26h0.7l1.26,0.42C364.22,174.45,363.8,174.87,363.1,174.87z M390.01,169.68h0.56l0.14,1.12l-1.68,0.14
		C389.03,170.24,389.31,169.82,390.01,169.68z M383.28,172.07l-2.66-0.28v-0.56c3.5-0.28,4.63-0.7,6.87-1.26
		c0,0.42,0.42,0.56,1.12,0.56l0.14,1.12l-1.12,0.14c-0.84,0.14-1.54,0-2.1-0.42C384.69,171.64,383.99,171.93,383.28,172.07z
		 M386.65,181.74v-0.56l4.34-0.42v0.56L386.65,181.74z M391.27,177.95v-0.56l2.1-0.14v0.56L391.27,177.95z M391.83,170.66h-0.56
		l0.56-1.12l4.91-0.42v0.56C395.34,169.68,393.66,170.1,391.83,170.66z M394.22,181.04l-0.14-1.12l2.1-0.14
		c0.7-0.14,1.12,0.28,1.12,0.98L394.22,181.04z M406.97,163.52l-2.66,0.7h-0.56c-1.26,0.14-2.94,0.14-4.91-0.14
		C402.49,164.08,405.85,163.8,406.97,163.52z M404.17,175.71v0.56l-3.78,0.28v-0.56L404.17,175.71z M410.19,178.51
		c0-0.42-0.7-0.7-2.24-0.84l-3.78,1.12l-2.8,0.14c-0.7-0.42-0.98-0.7-0.98-0.98l3.36,0.14l7.43-1.26l3.78,0.14v0.56
		C413.14,177.81,411.6,178.09,410.19,178.51z M448.74,168.7c0.42,0,0.7,0,0.84,0c1.26-1.26,2.8-2.24,4.49-3.08
		c-1.4,6.03-3.5,10.37-6.45,13.32l-2.1-1.26C447.34,173.19,448.46,170.1,448.74,168.7z M442.29,179.77h0.56
		c-0.7,1.4-1.4,2.1-1.82,2.1l-0.14-1.4C441.17,180.47,441.59,180.19,442.29,179.77z M438.09,189.73c0.98-4.06,1.96-6.45,2.94-7.01
		v0.56c-0.56,3.78-1.4,5.75-2.52,5.89l0.14,2.38c-0.84,1.26-1.26,2.24-1.26,3.08h-0.56l-0.28-3.22
		C437.25,191.27,437.67,190.85,438.09,189.73z M436.4,195.19c0,0.56-0.28,1.82-1.12,3.92h-0.56l-0.14-1.4
		C435.42,196.17,435.98,195.33,436.4,195.19z M405.99,283.77v-0.42l0.98-0.14l0.14,1.4C406.41,284.75,406.13,284.47,405.99,283.77z
		 M449.44,284.89c0-0.28-0.14-0.56-0.56-0.42l-2.52,0.28v-0.56h0.28l5.89-0.56v0.56C450.84,284.19,449.86,284.47,449.44,284.89z
		 M446.64,283.63c0.28,0.14,0.14,0.28,0,0.28C446.5,283.91,446.36,283.77,446.64,283.63z M446.92,276.9l-3.22,0.28v-0.56l2.94-0.28
		l2.52-0.7c0,0.28,0.14,0.42,0.56,0.42c3.08-0.56,2.8-0.7,4.2-0.84c0.56,0,0.84,0.28,0.84,0.84L446.92,276.9z M458.27,275.92
		c-1.82-0.14-1.96-0.28-3.22-0.28v-0.42l2.94-0.28v0.42C457.71,275.36,458.83,275.5,458.27,275.92z M458.55,275.36v-0.42l1.54-0.14
		v0.42L458.55,275.36z M462.05,275.08v-0.42c0.28,0,0.7-0.28,1.12-0.56c0.84-0.14,1.26,0.42,1.26,1.12L462.05,275.08z
		 M466.54,274.52v-0.42l1.96-0.14v0.56H466.54z M469.2,274.24c0-0.56,0.14-0.84,0.7-0.98l0.7,0.84c0-0.28,0.14-0.42,0.28-0.42
		l0.56,0.84L469.2,274.24z M440.61,286.58l-0.14-0.98h-0.28l0.14,0.98H440.61z M507.04,269.34c0.28-0.14,0.42-0.42-0.28-0.56
		c-0.28,0.42,0.42,0.56-0.42,0.56v0.28c0.14-0.14,0.28-0.14,0.42-0.28l-0.42,0.28l0,0l-0.84,0.98l1.54-0.56h0.14l-0.14-0.98V269.34z
		 M509.85,271.58h-0.28l0.14,0.98l2.24-0.14C511.81,271.72,510.27,271.58,509.85,271.58z M506.34,269.9L506.34,269.9L506.34,269.9
		L506.34,269.9z"/>
	<path id="XMLID_99_" class="st0" d="M361.28,199.96v0.56l1.26-0.14c0-0.42,0.14-0.98,0.42-1.68l-0.14-1.12
		C362.4,197.57,361.84,198.42,361.28,199.96z M349.37,171.22l-0.14-1.12l-1.82,0.14l0.14,1.12L349.37,171.22z M314.75,236.12
		c-0.14-0.98-3.22-5.05-9.53-11.91c-0.14-1.26,2.1-3.22,6.45-5.75l12.61-10.93c2.8-3.64,4.49-9.39,5.05-17.52l-0.14-1.82
		c-0.56-5.61-4.49-10.09-12.19-13.6c-4.49-3.08-12.75-4.77-24.53-5.05c-9.81,0.84-22.43,4.34-38.12,10.51
		c-4.34,3.08-9.25,6.17-14.72,9.25l0.14,0.98c0.28,0,0.84-0.28,1.54-0.7c0.7-0.14,0.98,0.28,1.12,0.84l0.98-0.56h0.42v0.42
		c0,0.56-3.36,3.22-10.23,7.99l0.56,0.98h-0.42l-1.12-0.42c0,0.28-0.42,0.56-1.4,0.7v0.42l1.12,1.4c-0.28,0-0.84-0.14-1.54-0.42
		c-1.54,0.14-3.08,0.98-4.63,2.52l0.7-2.8c2.24-9.95,3.92-18.78,4.77-26.35l-0.14-0.56c-1.54-0.98-3.08-2.52-4.63-4.2
		c0-1.12,0-1.82,0-1.96l-0.14-0.42l-0.42,0.14c-5.05,7.43-14.58,20.18-28.87,38.26c-10.79,12.89-16.4,20.04-16.82,21.44
		c-4.49,4.63-6.59,7.29-6.31,8.27c-1.12,0.7-1.68,1.54-1.54,2.38c-0.28,0.14-0.56,0-0.7-0.42c-1.82,3.08-4.63,5.05-8.41,5.89
		l-3.92,0.84c-0.56,0.14-0.84,0.56-0.7,1.12l0.14,0.56l1.54-0.28l0.14,0.42l-3.36,1.26l-5.89,1.4l-3.08,0.14
		c-0.42,0.42,2.52,0,1.26,0.28l-3.78,0.84c-2.38,0.56-3.64,0.28-3.78-0.56l-0.42,0.14c0.14,0.42,0.14,0.7,0,0.98l-0.7-1.12
		l-3.08,0.7c-0.28-1.4-4.49-6.59-12.47-15.7c-0.14-1.68,2.66-4.2,8.55-7.57l16.54-14.58c3.64-4.77,5.89-12.33,6.59-22.85l-0.28-2.52
		c-0.7-7.43-6.03-13.32-16.12-17.94c-6.03-4.06-16.68-6.17-32.24-6.59c-12.89,1.12-29.57,5.61-50.32,13.6
		c-5.61,4.06-12.19,8.13-19.34,12.19l0.14,1.26c0.56,0,1.12-0.28,1.96-0.7c0.84-0.14,1.26,0.28,1.4,1.12l1.26-0.7h0.7v0.56
		c0,0.56-4.49,4.06-13.6,10.51l0.7,1.12h-0.7l-1.4-0.56c0,0.42-0.56,0.7-1.96,0.7l0.14,0.7l1.54,1.68c-0.56,0-1.12-0.14-2.1-0.42
		c-2.94,0.28-5.89,2.38-8.69,6.45l0.7,1.12c2.52-2.24,3.92-3.36,4.34-3.5l0.14,1.82c-0.42,0-1.12,0.28-1.96,0.7l1.54,2.38
		c2.94-3.22,6.31-6.03,9.81-8.27c1.82,0.42,2.66,0.98,2.8,1.68l1.4-0.14c9.81-7.15,19.34-12.47,28.87-15.7l0.14,1.26
		c-1.82,2.66-2.94,4.06-3.64,4.06c0.14,0.84,0.42,1.68,0.98,2.38c0.14,1.68-4.2,12.61-13.03,32.8
		c-20.04,47.09-36.72,81.85-50.46,104.42c0,0.42,0.28,1.12,0.84,1.82c3.36-0.84,5.47-1.68,6.45-2.38l0.7-0.14l0.14,1.26l1.26-0.14
		l1.26-0.7c0,0.42,0.42,0.56,1.26,0.56l0.14,1.26c0.14,1.26-0.56,3.08-2.1,5.75c-1.4,1.54-2.8,4.77-4.34,9.81v0.56l1.26-0.14
		c5.47-6.03,9.53-12.05,12.33-17.94c15.84-4.63,27.89-9.25,36.3-13.74c8.41-0.7,14.86-2.94,19.2-6.59l-0.14-0.7l-3.22,0.98
		l-0.7,0.14l-0.14-0.7c6.17-0.98,10.51-2.24,12.89-4.2c12.05-9.25,21.16-15.84,27.33-19.76c12.61-9.25,20.88-18.36,24.67-27.19
		c0.7-0.14,1.4-0.28,2.1-0.56c1.82-0.14,2.8-0.14,3.08-0.14c-0.14-0.28,0.14-0.56,0.42-0.56c2.8-0.28,1.54,0.14,3.22-0.28l4.77-1.12
		l0.84-0.14l-0.42,0.28c0.56,0.14,1.12,0,1.68-0.14l0.28,1.4l-21.58,34.48l-4.77,6.03l-2.38,7.85l0.42-0.14l2.38-0.98l-0.7,3.08
		l0.28,0.84l0.7,0.84c-0.28,0.14-0.42,0.28-0.28,0.56l0.14,0.56l0.98-0.28c1.4-1.26,2.1-2.38,1.82-3.36
		c1.54,0.28,2.52,0.42,3.08,0.28l0.14,0.56c-0.98,0.28-1.4,0.98-1.54,2.24l0.14,0.56l0.56-0.14c7.85-8.55,27.19-37.98,42.61-57.89
		c-0.56-2.1,7.57-5.19,24.25-8.97l0.56-0.14c0.56,2.66-0.7,8.97-3.78,18.92c-2.1,6.03-3.08,9.39-2.8,9.95
		c-2.66,7.99-3.92,12.33-3.78,13.03l-5.89,19.34c-3.78,9.95-6.73,20.32-8.83,31.26c0.28-0.14,0.84,0,1.68,0.14l0.84-0.7
		c0.14,0.28,0.28,0.42,0.7,0.42l-0.28-1.4l2.52-0.14c0.7-0.14,1.4-1.12,1.96-2.8c-0.14-2.66,0.42-4.06,1.54-4.34
		c1.54-6.17,2.52-9.25,2.94-9.39c1.54-6.17,2.52-9.67,3.22-10.51c2.24-7.99,3.78-12.19,4.91-12.33l0.28,0.98l-1.68,4.2
		c-2.8,12.61-5.75,22.57-8.55,29.85l0.84,3.64l0.56-0.14c7.01-15.14,17.1-44.99,30.27-89.84c0.42-3.92,2.24-7.01,5.61-9.11
		l-0.7-0.84l-0.14-0.42c1.54-0.28,2.52-0.98,3.22-1.82c-0.14-0.28-1.4-0.84-3.92-1.54l6.31-27.89c1.4-1.26,2.24-1.96,2.52-1.96
		l0.14,1.4c-0.28,0-0.84,0.28-1.54,0.7l1.26,1.82c2.24-2.52,4.77-4.63,7.43-6.31c1.4,0.42,2.1,0.84,2.1,1.26l0.98-0.14
		c7.43-5.47,14.86-9.39,22-11.77l0.14,0.98c-1.26,1.96-2.24,3.08-2.66,3.08c0.14,0.7,0.28,1.26,0.56,1.82
		c0.14,1.26-3.08,9.53-9.81,24.95c-15.14,35.74-27.89,62.09-38.26,79.33c0,0.28,0.28,0.84,0.7,1.4c2.52-0.56,4.2-1.26,4.77-1.82
		h0.42l0.14,0.98l1.12-0.14l0.98-0.56c0,0.28,0.42,0.42,0.98,0.28l0.14,0.98c0.14,0.84-0.42,2.38-1.68,4.34
		c-1.12,1.12-2.24,3.64-3.5,7.43v0.56l0.98-0.14c4.06-4.63,7.29-9.11,9.39-13.6c12.05-3.5,21.3-7.01,27.61-10.37
		c6.45-0.56,11.35-2.24,14.72-5.05v-0.56l-2.52,0.7h-0.56v-0.56c4.63-0.7,7.99-1.68,9.81-3.08c9.11-7.01,16.12-12.05,20.74-15
		C308.72,256.02,315.59,245.93,314.75,236.12z M312.22,236.68l0.28,3.78c-0.42,0.98-0.98,1.4-1.4,1.54l-0.56-6.45
		C311.66,235.84,312.22,236.26,312.22,236.68z M26.16,205.98h-0.7l-0.14-1.12l2.66-0.28v0.56C27.56,205.28,27,205.42,26.16,205.98z
		 M13.41,333.39c-1.54-0.7-2.8-0.98-4.06-0.84l-0.14-1.82c-0.14-0.7,0.28-1.26,1.26-1.4c0.84-0.14,1.26,0.56,1.4,1.68
		c2.24-2.66,3.36-4.06,3.64-4.06l1.4,0.56C16.49,331.29,15.23,333.25,13.41,333.39z M149.5,190.99c-0.7,0.14-1.96-1.96-3.78-5.89
		l-0.14-1.12c1.26-0.14,2.52,1.82,3.78,5.89L149.5,190.99z M147.68,176.97l-0.56,1.26l-18.5-7.71
		C140.95,170.8,147.26,173.05,147.68,176.97z M69.61,243.97l-2.66,0.28l-0.14-1.12l2.66-0.28L69.61,243.97z M67.51,203.6h0.7
		l0.14,1.82c-0.56,0-1.4,0.98-2.38,2.66l-0.14-1.26C66.95,205.42,67.65,204.44,67.51,203.6z M62.04,216.64l0.28,2.52h-0.7
		l-0.28-2.52H62.04z M59.24,221.26l1.26-0.14c-0.14,2.1-0.7,3.08-1.68,3.22h-0.7C58.82,222.94,59.24,221.96,59.24,221.26z
		 M56.99,227.57l0.7-0.14v0.56l-1.12,1.96l-1.26,0.14v-0.56C56.57,229.53,57.13,228.83,56.99,227.57z M54.89,233.45l-0.42,3.08h-0.7
		l-0.28-3.08H54.89z M33.73,293.72c-0.84,4.2-1.68,6.45-2.66,6.45v-0.56C30.78,297.51,31.63,295.41,33.73,293.72z M29.8,302.13v0.56
		c0.14,0.84-0.28,1.26-1.12,1.4v-0.56C28.54,302.69,28.96,302.27,29.8,302.13z M28.68,319.51l1.96-0.14l0.14,0.7
		c-0.56,0-1.12,0.28-1.96,0.7l-1.26,0.14C27.42,320.35,27.84,319.79,28.68,319.51z M84.61,302.27
		c-11.07,5.47-17.52,9.11-19.48,11.07c-11.91,4.2-17.94,6.73-17.8,7.71c-10.65,4.2-17.66,7.29-21.02,9.25
		c-0.84,0.14-1.96-0.28-3.5-0.84c-0.14-2.1,0.84-3.92,2.8-5.33c1.82-0.14,3.64,0.14,5.33,0.84c1.96-0.98,5.47-2.1,10.23-3.36
		l-0.14-1.26l-3.64,0.28c0.56-0.7,4.2-2.52,11.35-5.33l1.96-0.14v0.56c-3.36,0.28-5.19,1.26-5.61,3.08c0.14,0.84,0.56,1.12,1.4,1.12
		c2.52-1.54,3.78-2.52,3.78-2.8c4.77-0.84,18.08-7.85,39.81-20.88l0.14,1.12C90.21,298.07,88.39,299.61,84.61,302.27z M51.25,313.21
		c3.22-0.28,5.89-1.54,8.13-3.78c0.84-0.14,1.4,0.28,1.4,1.12c-1.54,0.14-4.49,1.4-8.83,3.92h-0.7V313.21z M105.07,272l-16.68,13.17
		c-12.33,8.13-19.06,12.19-20.04,12.33c-19.76,10.79-31.96,16.54-36.72,16.96l-0.7,0.14c0.56-2.24,9.39-20.18,26.35-53.96
		c7.43-0.7,19.2-4.06,35.32-10.51l3.92-0.28c8.13-0.7,14.16,0.84,18.22,4.63l0.28,2.52C111.94,265.41,108.57,270.46,105.07,272z
		 M72.41,253.64l2.66-0.28v0.56l-2.66,0.28V253.64z M110.11,247.33l1.96-0.14c1.82,0.84,2.8,1.68,2.8,2.24v0.56
		C113.2,250.13,111.66,249.29,110.11,247.33z M115.44,216.92c-1.68,2.1-6.45,5.61-14.3,10.65c-2.52,0.28-12.19,3.92-28.73,11.21
		c-0.84-0.42-1.68-0.56-2.66-0.42l-0.14-1.12c-0.14-2.38,0.84-5.33,3.22-8.97c1.26-6.87,2.66-10.65,4.2-11.63l13.74-30.98
		c-0.14-1.96,2.8-3.36,8.83-4.49l1.96-0.14l0.14,1.82c5.89-0.84,9.67-1.4,11.07-1.54c10.93-0.98,16.68,1.26,17.1,6.59l1.26-0.14
		l-0.28-3.08l1.4-0.14c3.22,1.82,4.91,3.92,5.19,6.45c0.14,1.68-0.84,3.92-2.8,6.45c-0.84,0.14-1.26-0.56-1.4-1.68l-1.4,0.14
		l-0.28,3.78c-5.61,8.27-9.53,12.61-12.05,12.75C117.4,215.37,116,216.92,115.44,216.92z M123.99,238.64
		c-1.12-0.7-2.1-1.12-2.66-1.12l-0.14-1.82l1.26-0.14l2.8,1.68C125.11,238.08,124.83,238.64,123.99,238.64z M132.68,249.01
		c1.26,0.56,1.96,0.98,2.1,1.54l-0.56,0.14l0,0c-0.14,0-0.28,0-0.42,0.14l-0.84,0.7L132.68,249.01z M133.52,254.2l-0.14-0.56
		l1.54-0.42l0.14,0.56L133.52,254.2z M137.31,258.54c1.68-0.28,2.38-0.42,5.47-1.12l0.14,0.56l-5.75,1.26
		C137.17,258.96,137.31,258.68,137.31,258.54z M142.91,260.93c-2.38,0.28-1.82-0.14-5.75,0.84l-0.14-0.56l4.91-1.54l2.24-0.56
		l0.28,0.84C143.33,260.23,144.17,260.23,142.91,260.93z M148.1,259.66c-0.56,0.14-0.98-0.14-1.26-0.7l1.54-0.28
		c0.7-0.14,1.12,0.14,1.26,0.7L148.1,259.66z M161.83,244.81l-0.14-0.56l2.38-0.56l0.28,0.84L161.83,244.81z M176.69,335.35
		c0.14-0.7,0.14-1.12,0.14-1.54l0.56-0.14c0.7-0.14,0.98,0.14,1.12,0.7l0.14,0.56L176.69,335.35z M186.92,248.73l-1.12-0.14
		c-1.68,0.7-3.08,1.12-4.34,1.4l-0.98,0.28c-0.56,0.14-0.98-0.14-1.26-0.7l6.87-1.54l2.24-1.12l0.7,0.84
		C188.18,247.89,187.48,248.31,186.92,248.73z M192.39,247.05l-0.14-0.56c0.28-0.14,0.84-0.28,1.26-0.84l4.91-1.12l0.14,0.56
		C195.89,245.65,193.79,246.35,192.39,247.05z M193.09,237.1c-0.28,0.14-0.84,0.42-1.4,0.84c-0.14-0.28-0.7-0.28-2.1,0
		c-0.28-0.98,3.36-2.24,10.93-4.06l1.12-0.28l0.28,0.84C196.59,236.12,193.65,236.96,193.09,237.1z M206.26,222.8
		c-0.56,6.03-2.66,9.39-6.45,10.23l-0.14-0.56l-3.36,1.26l-1.54,0.28c-0.7,0.14-1.4,0.14-2.1,0l-0.28-1.26
		c-0.14-0.56,4.63-7.15,14.44-19.9l1.12,0.14C208.65,214.81,207.95,218.04,206.26,222.8z M229.67,202.76h-0.42l-0.14-0.98l1.96-0.14
		v0.42C230.79,202.2,230.37,202.48,229.67,202.76z M220,299.47c-1.12-0.56-2.1-0.7-3.08-0.7l-0.14-1.4c0-0.56,0.28-0.84,0.84-0.98
		c0.7-0.14,0.98,0.42,1.12,1.4c1.68-2.1,2.52-3.08,2.66-3.08l0.98,0.42C222.24,297.93,221.4,299.47,220,299.47z M323.3,191.41
		c-0.56,0-1.4-1.54-2.94-4.49l-0.14-0.98c0.98-0.14,1.96,1.4,2.94,4.49L323.3,191.41z M322.03,180.62l-0.42,0.98l-14.02-5.89
		C316.85,176.13,321.75,177.67,322.03,180.62z M262.75,231.49l-1.96,0.14l-0.14-0.98l1.96-0.14L262.75,231.49z M261.07,200.94h0.56
		l0.14,1.4c-0.56,0-1.12,0.7-1.82,2.1l-0.14-0.98C260.65,202.34,261.07,201.5,261.07,200.94z M257,210.75l0.14,1.82h-0.56
		l-0.14-1.82H257z M254.76,214.25l0.98-0.14c-0.14,1.54-0.56,2.38-1.26,2.52h-0.56C254.48,215.65,254.76,214.81,254.76,214.25z
		 M253.22,219.16h0.42v0.56l-0.84,1.54l-0.98,0.14v-0.56C252.8,220.56,253.22,220.14,253.22,219.16z M251.54,223.5l-0.28,2.38h-0.42
		l-0.14-2.38H251.54z M235.42,269.34c-0.7,3.22-1.26,4.77-2.1,4.91v-0.42C233.17,272.28,233.87,270.74,235.42,269.34z
		 M232.47,275.78v0.42c0.14,0.7-0.28,1.12-0.84,1.12v-0.56C231.49,276.34,231.77,275.92,232.47,275.78z M231.63,289.1l1.54-0.14
		v0.42c-0.28,0-0.84,0.28-1.54,0.56l-0.98,0.14C230.65,289.52,230.93,289.24,231.63,289.1z M274.1,275.92
		c-8.27,4.06-13.32,6.87-14.86,8.41c-9.11,3.22-13.6,5.19-13.46,5.89c-7.99,3.22-13.32,5.47-15.84,7.01c-0.56,0-1.54-0.14-2.66-0.7
		c-0.14-1.68,0.56-2.94,2.24-3.92c1.4-0.14,2.8,0.14,4.06,0.56c1.54-0.7,4.06-1.54,7.85-2.52l-0.14-0.98l-3.08,0.28
		c0.42-0.56,3.22-1.82,8.69-4.06l1.54-0.14v0.42c-2.52,0.28-4.06,0.98-4.34,2.38c0,0.56,0.42,0.84,1.12,0.84
		c1.82-1.26,2.8-1.96,2.8-2.24c3.64-0.7,13.74-5.89,30.13-15.84l0.14,0.98C278.31,272.7,276.9,273.82,274.1,275.92z M248.73,284.19
		c2.52-0.28,4.49-1.12,6.31-2.8c0.7,0,0.98,0.28,1.12,0.84c-1.12,0.14-3.36,1.12-6.73,2.8h-0.56L248.73,284.19z M289.66,252.8
		l-12.61,10.09c-9.39,6.17-14.58,9.25-15.28,9.39c-15,8.27-24.25,12.47-27.89,12.75h-0.56c0.42-1.68,7.15-15.28,20.04-40.93
		c5.61-0.56,14.58-3.22,26.77-7.99l3.08-0.28c6.17-0.56,10.79,0.7,13.74,3.64l0.14,1.82C294.84,247.89,292.32,251.68,289.66,252.8z
		 M264.85,238.92l1.96-0.14v0.56l-1.96,0.14V238.92z M293.44,234.02l1.54-0.14c1.4,0.7,2.1,1.26,2.1,1.82v0.42
		C295.83,236.26,294.7,235.56,293.44,234.02z M297.51,211.03c-1.26,1.54-4.91,4.34-10.79,8.13c-1.96,0.14-9.25,2.94-21.72,8.41
		c-0.56-0.28-1.26-0.28-1.96-0.28l-0.14-0.98c-0.14-1.82,0.7-4.06,2.38-6.87c0.98-5.19,2.1-8.13,3.22-8.83l10.51-23.55
		c-0.14-1.4,2.1-2.52,6.59-3.36l1.54-0.14l0.14,1.4c4.49-0.7,7.29-1.12,8.41-1.26c8.27-0.7,12.61,0.98,13.03,5.05l0.98-0.14
		l-0.14-2.24l0.98-0.14c2.38,1.26,3.64,2.94,3.78,4.77c0.14,1.4-0.56,3.08-1.96,4.91c-0.7,0.14-0.98-0.42-1.12-1.4l-0.98,0.14
		l-0.28,2.8c-4.2,6.45-7.29,9.67-9.25,9.81C299.05,209.91,297.93,211.03,297.51,211.03z M301.85,226.73l-0.14-1.4l0.98-0.14
		l2.1,1.26c0,0.56-0.28,0.98-0.84,0.98C303.11,227.01,302.41,226.73,301.85,226.73z M125.95,318.53l-0.98,0.28l-0.84,0.7
		c0.14,0.56,0.56,0.84,1.12,0.7c0.7-0.14,0.84-0.56,0.7-1.12V318.53z M122.31,311.1l0.14,0.42c0.7-0.14,0.84-0.56,0.7-1.12
		l-0.14-0.56C122.45,310.12,122.17,310.54,122.31,311.1z M149.08,260.93l0.7-0.42c-0.14,0-0.28,0-0.42-0.14
		C149.08,260.37,148.94,260.65,149.08,260.93z M148.8,247.89l1.12-0.28l-0.28-0.98l-1.12,0.28L148.8,247.89z M415.94,286.01
		l-2.52-0.28l-0.42,0.98v0.56l15.28-1.26l-0.14-0.98L415.94,286.01z M429.82,284.75l0.14,0.98h0.14l-0.14-0.98H429.82z
		 M494.01,276.48l0.14,0.98l1.68,0.28l-0.14-0.98L494.01,276.48z M491.77,276.62c-11.49,2.52-12.89,2.1-15.28,2.24l0.14,0.98
		l1.12-0.14h0.56l-0.14-0.14l1.26-0.56c11.35-1.26,12.75-0.84,12.61-2.1L491.77,276.62z M422.81,259.94l-0.98-0.28
		c-0.84,2.24-1.26,3.5-1.26,3.92v0.42C421.41,263.87,422.11,262.47,422.81,259.94z M408.93,252.52v-0.56h-0.56l-0.98,0.56l0.56,0.84
		C408.65,253.5,408.93,253.08,408.93,252.52z M438.93,283.49l-0.14-0.98h-0.28l0.14,0.98H438.93z M501.3,269.48l0.7-0.14
		c0.42,0,0.56-0.42,0.56-0.98l-0.42-0.84c-2.66,0.28-3.78,0.28-5.89,1.54v-0.56l-3.08,0.28c-0.14-0.98-0.28-1.4-0.7-1.4l-1.68,0.14
		c-1.82,0.14-2.8,0.14-3.78,0.84c0-0.28-0.14-0.56-0.28-0.56l-1.82,0.14l-1.12,0.56c0-0.28-0.14-0.56-0.28-0.56l-0.7,0.56v-0.56
		l-2.52-0.14h-0.56l0.14,0.98l1.26,0.28l1.26-0.14c0.42,0.28,0.84,0.28,1.4,0.28l1.12-0.56v0.42c-5.89,1.54-5.89,1.26-9.95,1.82
		c-0.42-0.28-0.84-0.42-0.98-0.42l-0.14,0.14c-0.42,0-0.7-0.28-0.7-0.84l2.1-0.28c0.14,0,0.28,0.14,1.4,0.42
		c1.68-0.84,1.82-1.12,2.66-1.26l-0.14-0.98c-5.89,1.12-3.5,0.42-10.79,0.98h-0.28l-0.14-0.98c9.39-1.12,6.17-0.56,9.39-1.4
		c0,0.28,0.14,0.56,0.28,0.56c0.42-0.42,0.84-0.56,1.26-0.7h0.7c3.22-0.28,4.34,0.42,10.93-1.4v0.42l1.12-0.56l0.98-0.14
		c-0.14-0.98,1.4-1.12,1.82-1.12l-0.14-0.98c-11.35,2.24-14.44,1.68-17.52,2.52v-0.42c-2.94,0.56-3.08,0.28-3.78,0.28
		c-0.28,0-0.56,0.28-0.98,0.56c0-0.28-0.14-0.56-0.42-0.56c-0.14,0-0.14,0-0.14,0l-9.67,1.54c0-0.28-0.14-0.42-0.42-0.42
		c-5.05,1.12-3.64,1.26-10.37,1.82c-0.28,0-0.7,0.14-1.26,0.56c0-0.28-0.14-0.42-0.56-0.42l-4.06,0.28l-2.8,0.7
		c0-0.28-0.14-0.42-0.56-0.42c-1.54,0.42-2.94,0.7-4.06,0.7h-0.14c-0.7,0.14,0.28-0.14-0.14-0.42l-0.84,0.56
		c-1.26,0.14-0.56-0.14-4.77,0c-7.29,0.84-6.45,0.98-7.29,1.12l-2.66-0.14c0,0.28-0.14,0.42-0.42,0.42
		c-3.08-0.42-4.63-0.84-4.77-1.54c0.42-2.94,1.12-4.49,2.1-4.49h0.56l-0.42,0.98h0.56c0.98-0.56,1.4-0.98,1.4-1.54l-0.14-0.98
		l-0.98,0.14l-0.14-0.98c-0.14-0.7,0-1.4,0.28-1.82l2.24-3.64l0.14,0.98l1.12-0.14l-0.14-0.98l-0.56-0.84
		c0.84-0.7,1.4-1.12,1.82-1.12v-0.42l-1.4,0.14l-0.14-1.4c2.8-6.03,4.2-9.39,4.2-10.37l0.98,0.42c0.7,0,0.98-0.42,0.84-1.12
		l-0.98,0.14v-0.42c-0.14-0.7,0.14-1.4,0.42-1.96c1.54-1.68,2.24-3.22,2.1-4.91c0.28,0,0.42,0.14,0.56,0.42
		c1.26-0.7,2.38-2.8,3.08-6.03c2.38-4.2,5.61-12.75,9.95-25.37c8.27-22.43,7.99-24.81,9.11-29.99l-0.98,0.14
		c0.14,0.7-0.14,1.26-0.42,1.96c-0.7-0.28-1.26-0.42-1.54-0.42v-0.42c-0.14-1.96,0.7-4.2,2.52-7.01h0.42l0.84,3.22l0.98-0.14
		c0-0.28,0.28-1.54,0.7-3.92c0-0.56-0.42-0.84-1.12-0.84l-0.98,0.56c-0.14-0.7,0-2.52,0.14-5.33h-0.56
		c-0.84-0.84-1.26-1.54-1.26-2.1l-5.47,0.56c0-0.42-0.28-0.98-0.56-1.68c0-0.56,1.12-0.98,3.64-1.54l1.12,0.42l0.98-0.56
		c0,0.28,0.28,0.56,0.56,0.42l0.98-0.56c0,0.28,0.28,0.56,0.56,0.42h0.56l-0.14-1.12c-0.7,0.14-2.8,0.14-5.89,0l-0.98,0.7v-0.56
		c-25.37,2.1-39.81,3.22-43.17,3.64c-0.42,0-2.24,0-5.33-0.14c0,0.42-0.28,0.7-1.12,0.7l-1.12-0.56l-3.64,0.98
		c-0.84,0.14-2.38,0-4.34-0.14c-0.56,0.42-1.26,0.7-2.1,0.84c-0.42,0,5.47-0.28,10.79-0.7c-0.56,0.42-1.4,0.7-2.66,0.84
		c-0.84,0.14-1.54,0-2.1-0.42c-0.84,0.42-3.5,0.98-7.99,1.82l-1.12-0.42l-17.66,2.66c-0.7-0.28-1.54-0.42-2.38-0.42
		c-0.98,0.14-2.52,0.42-4.77,0.98l-8.55,3.5l0.7,1.12c0.42,0,0.98-0.28,1.68-0.7l3.08,0.28l-0.42,2.8c-2.8,1.26-4.49,3.08-4.91,5.47
		c-4.2,1.82-6.31,3.22-6.31,3.92v0.56h0.7l1.12-0.56l1.26,1.54l0.14,2.24c0.14,0.7-7.01,15.56-21.16,44.57
		c-12.19,27.89-18.64,43.31-19.2,45.97c-4.2,1.12-6.59,2.8-7.29,5.19c0.14,0.7,1.26,1.26,3.78,1.4l0.14,1.12l-1.12,1.82l0.14,2.24
		c0.14,1.12,3.22,1.96,9.25,2.66c0-0.42,0.14-0.56,0.56-0.7c0.14,1.4-0.28,4.06-1.12,7.99h0.7c2.52-3.36,3.64-5.75,3.5-7.01h0.56
		c0.56,0,1.26,0.7,1.96,2.1c-0.7,0.28-3.36,6.31-7.99,18.08l0.7,1.12h0.7c5.61-14.02,8.97-21.86,10.51-23.27
		c7.29-0.7,19.9-1.96,37.84-3.78l1.12-0.7c0,0.42,0.28,0.56,0.7,0.56l1.12-0.14l1.12-0.7c0,0.42,0.28,0.56,0.7,0.56l13.6-1.12
		c3.64-0.28,5.33-1.4,5.19-3.22c0-0.56,2.1-1.12,6.31-1.68c0.42,0,0.98,0.14,1.82,0.28c0-0.28,2.1-0.7,6.45-1.12
		c0.14-2.24,0.84-3.5,2.1-3.64l-0.14-1.12c-1.26,0.14-2.52,0.42-4.2,0.98c-2.8-0.14-4.63-0.42-5.47-0.7c-0.7,0.42-1.26,0.7-1.68,0.7
		l-9.39,0.28l-1.12,0.56c0-0.28-0.28-0.56-0.7-0.42h-0.56l-1.26,0.56c0-0.28-0.98-0.56-2.94-0.84l-1.26,0.7l-2.38,0.14v-0.56
		c12.19-1.26,18.22-2.94,18.08-4.91c0.84-0.14,1.26,0.28,1.26,1.12l3.5-0.84l-0.14-1.12l-29.15,0.84c0,0.42-0.14,0.56-0.56,0.7
		l-3.5-0.28c-0.84,0.14-1.68,0.28-2.24,0.84l-1.26-0.56c-3.64,0.28-6.45,0.7-8.27,1.26c-2.52-0.14-5.19-0.14-8.27,0.14l-6.59,0.56
		l-3.08-0.28c-0.14-1.96,3.64-11.35,11.35-28.45c2.24-5.75,4.2-9.39,6.17-10.65c0.42,0,0.98,0.14,1.82,0.42l4.63-1.54l2.38,0.42
		c4.06-0.28,8.69-1.54,14.02-3.5c1.26-0.14,2.24,0,3.08,0.28l3.5-0.84l10.51-0.84c4.49-0.42,9.39-1.4,14.72-2.94l-0.14-1.12
		c-1.96,0.14-2.94-0.14-3.08-0.98c-0.14-1.54-1.54-2.1-4.34-1.82l-0.14-1.12l2.94-0.84l7.57-0.7l-0.14-1.12
		c-0.28,0-1.82,0-4.77-0.14l-0.14-1.12l2.94-0.28c0.84-0.14,1.12-0.42,1.12-1.26c-3.92,0.14-6.03-0.14-6.03-0.56
		c-27.61,1.4-41.49,1.68-41.63,0.7c-0.42,0-0.98,0.28-1.68,0.7l-0.42-0.7c7.29-15.56,11.63-23.41,12.89-23.55
		c0,0.56-0.28,1.54-0.84,2.94v0.56l1.12-0.14c2.94-7.01,5.33-10.51,7.43-10.65c8.69-0.7-1.26-1.26,17.38-4.2
		c0.7,0.28,1.26,0.56,1.68,0.42c7.29-1.54,17.52-3.08,30.55-4.63l-0.14-1.12l-7.01,0.7l-0.14-1.12c0.84-0.14,1.54-0.28,2.1-0.84
		v0.56c0.42,0,0.84-0.28,1.54-0.7c1.26-0.14,2.1,0,2.8,0.28c2.38-0.7,4.34-0.98,5.89-1.12l4.34-0.42c1.12-0.7,1.54-1.26,1.54-1.82
		v-0.56c-1.12,0.14-2.38,0-3.78-0.28c0-0.56,0.28-0.98,0.98-1.26l8.13-0.7l3.64-0.98c0,0.42,0.28,0.56,0.56,0.56
		c0.42,0,0.84-0.28,1.54-0.7c0.14,0,0.42,0,0.56,0.14c-0.56,0.98-1.12,2.52-1.68,4.49l-1.12,0.14c-0.14-0.7-0.28-1.4-0.56-1.96
		h-0.56c-9.81,27.33-14.16,40.09-23.27,61.11c-1.68,5.33-3.08,8.41-4.2,8.97c0,0.56,0.42,0.84,1.12,0.84
		c0.28,2.66-0.42,5.19-1.82,7.85c-4.2,12.05-7.01,18.64-8.41,19.9l0.98,5.75c0,0.56-0.28,0.98-0.84,0.98l-0.98,0.14
		c-0.14-1.54-0.7-2.38-1.68-2.24h-0.56c-1.26,1.96-2.24,4.34-2.94,7.01l0.98-0.14c1.26-0.84,1.96-1.82,1.82-3.08l1.96-0.14
		l1.12,0.42c-0.84,1.4-1.26,2.52-1.26,3.5l0.56,0.84l-1.26,3.08v0.56c1.12-0.14,2.38,0.28,3.64,1.12c0.84-0.14,1.82-0.56,2.94-1.26
		c1.12-0.14,5.33-0.14,12.61-0.14l3.64-1.26c4.49,0,5.19,0.14,8.97-0.28l1.54-0.14l0.84-0.56v0.56c4.06-0.28,4.34-0.14,7.43,0.28
		v0.56l-2.24,0.14l0.14,0.98c0.7-0.14,1.26-0.28,1.82-0.7c0.56,0,0.84,0.28,0.98,0.98c-0.84,0.14-1.96,0.28-3.08,0.7l-0.98-0.28
		c-1.54,0.42-1.26,0.56-2.24,0.56l-1.54-0.28c0,0.28-0.14,0.42-0.42,0.42c0,0.56,0.42,0.84,0.98,0.84l1.54-0.14l8.27-0.7l3.08-0.7
		c0,0.28,0.14,0.42,0.42,0.42l1.54-0.56l2.8-0.28c2.24-0.14,2.1-0.28,6.87-1.12c0-0.28,0.14-0.42,0.28-0.42v0.42
		c7.71-1.26,8.27-1.4,9.53-1.82l0.14,0.28c1.96-0.42,0.84-0.28,1.4-0.7c0,0.28,0.14,0.56,0.28,0.56l1.4-0.14l-0.14-0.98h-2.8v-0.14
		c-0.14,0-0.14,0-0.28,0.14h-0.42v0.14c-1.82,0.42-1.82,0.14-3.08,0.28l-6.87,0.42v-0.56l3.78-0.56l1.4-0.14l0.84-0.56v0.56
		c5.47-0.42,7.43,0.84,32.52-4.49c1.4-0.14,1.26-1.26,2.1-3.64c-0.42,0-0.84-0.14-1.26-0.28c-2.1,0.84-3.22,0.42-7.15,1.12
		c-0.28,0-0.56-0.28-0.7-0.84v-0.42l3.78,0.14c0.7-0.14,2.1-0.14,4.2-1.4C501.58,269.34,500.88,269.48,501.3,269.48L501.3,269.48z
		 M315.31,272.42l-1.82,0.14c-0.14-0.7,0.84-3.5,2.8-8.13l1.12-0.14C317.55,265.55,316.85,268.21,315.31,272.42z M317.41,263.87
		v-0.56c0-0.56,0.28-0.98,1.12-1.26v0.42C318.67,263.31,318.25,263.73,317.41,263.87z M341.1,282.09v0.56l-2.94,0.28v-0.56
		L341.1,282.09z M337.45,281.81c0,0.56-0.84,1.26-2.8,1.96l-3.64-0.28l-1.12,0.14l-0.14-1.12L337.45,281.81z M361.42,171.93
		l-1.82,0.14v-0.56c0-0.56,0.28-0.98,1.12-1.26h0.7l1.26,0.56C362.54,171.36,362.12,171.79,361.42,171.93z M388.33,166.6h0.56
		l0.14,1.12l-1.68,0.14C387.35,167.16,387.63,166.74,388.33,166.6z M381.6,168.98l-2.66-0.28v-0.56c3.5-0.28,4.63-0.7,6.87-1.26
		c0,0.42,0.42,0.56,1.12,0.56l0.14,1.12l-1.12,0.14c-0.84,0.14-1.54,0-2.1-0.42C383,168.7,382.3,168.84,381.6,168.98z
		 M384.97,178.79v-0.56l4.34-0.42v0.56L384.97,178.79z M389.59,175.01v-0.56l2.1-0.14v0.56L389.59,175.01z M390.01,167.58h-0.56
		l0.56-1.12l4.91-0.42v0.56C393.66,166.74,391.97,167.02,390.01,167.58z M392.53,177.95l-0.14-1.12l2.1-0.14
		c0.7-0.14,1.12,0.28,1.12,0.98L392.53,177.95z M405.29,160.57l-2.66,0.7h-0.56c-1.26,0.14-2.94,0.14-4.91-0.14
		C400.66,160.99,404.03,160.71,405.29,160.57z M402.49,172.63v0.56l-3.78,0.28v-0.56L402.49,172.63z M408.51,175.57
		c0-0.42-0.7-0.7-2.24-0.84l-3.78,1.12l-2.8,0.14c-0.7-0.42-0.98-0.7-0.98-0.98l3.36,0.14l7.43-1.26l3.78,0.14v0.56
		C411.46,174.73,409.91,175.15,408.51,175.57z M447.06,165.62c0.42,0,0.7,0,0.84,0c1.26-1.26,2.8-2.24,4.49-3.08
		c-1.4,6.03-3.5,10.37-6.45,13.32l-2.1-1.26C445.65,170.1,446.78,167.16,447.06,165.62z M440.61,176.69h0.56
		c-0.7,1.4-1.4,2.1-1.82,2.1l-0.14-1.4C439.49,177.39,439.91,177.11,440.61,176.69z M436.4,186.78c0.98-4.06,1.96-6.45,2.94-7.01
		v0.42c-0.56,3.78-1.4,5.75-2.52,5.89l0.14,2.38c-0.84,1.26-1.26,2.24-1.26,3.08h-0.56l-0.28-3.22
		C435.56,188.32,435.98,187.76,436.4,186.78z M434.72,192.25c0,0.56-0.28,1.82-1.12,3.92h-0.56l-0.14-1.4
		C433.74,193.09,434.3,192.25,434.72,192.25L434.72,192.25z M404.31,280.69v-0.42l0.98-0.14l0.14,1.4
		C404.73,281.67,404.45,281.39,404.31,280.69z M447.76,281.81c0-0.28-0.14-0.56-0.56-0.42l-2.52,0.28v-0.56h0.28l5.89-0.56v0.56
		C449.16,281.25,448.18,281.39,447.76,281.81z M444.95,280.69c0.28,0.14,0.14,0.28,0,0.28
		C444.81,280.83,444.67,280.83,444.95,280.69z M445.23,273.82l-3.22,0.28v-0.56l2.94-0.28l2.52-0.7c0,0.28,0.14,0.42,0.56,0.42
		c3.08-0.56,2.8-0.7,4.2-0.84c0.56,0,0.84,0.28,0.84,0.84L445.23,273.82z M456.59,272.84c-1.82-0.14-1.96-0.28-3.22-0.28v-0.42
		l2.94-0.28v0.42C456.03,272.42,457.01,272.42,456.59,272.84z M456.87,272.28v-0.42l1.54-0.14v0.42L456.87,272.28z M460.37,272
		v-0.42c0.28,0,0.7-0.28,1.12-0.56c0.84-0.14,1.26,0.42,1.26,1.12L460.37,272z M464.86,271.44v-0.56l1.96-0.14v0.56L464.86,271.44z
		 M467.52,271.16c0-0.56,0.14-0.84,0.7-0.98l0.7,0.84c0-0.28,0.14-0.42,0.28-0.42l0.56,0.84L467.52,271.16z M504.66,266.81
		L504.66,266.81L504.66,266.81L504.66,266.81z M505.36,266.39c0.28-0.14,0.42-0.42-0.28-0.56c-0.28,0.42,0.42,0.56-0.42,0.56v0.28
		c0.14-0.14,0.28-0.14,0.42-0.28l-0.42,0.28l0,0l-0.84,0.98l1.54-0.56h0.14l-0.14-0.98V266.39z M508.17,268.49h-0.28l0.14,0.98
		l2.24-0.14C510.13,268.63,508.59,268.49,508.17,268.49z"/>
</g>
</svg>
