<?xml version="1.0" encoding="utf-8"?>
<!-- Generator: Adobe Illustrator 24.1.1, SVG Export Plug-In . SVG Version: 6.00 Build 0)  -->
<svg version="1.1" id="Layer_1" xmlns="http://www.w3.org/2000/svg" xmlns:xlink="http://www.w3.org/1999/xlink" x="0px" y="0px"
	 viewBox="0 0 512 512" style="enable-background:new 0 0 512 512;" xml:space="preserve">
<style type="text/css">
	.st0{fill:#444444;}
</style>
<g>
	<path class="st0" d="M99.1,246H55.9l-2,2v21.1l2,2h16.9v26.3c0,0-3.8,1.3-14.2,1.3c-12.3,0-29.6-4.5-29.6-42.4
		c0-37.9,18-42.9,34.8-42.9c14.6,0,20.9,2.6,24.9,3.8l2.4-2l4.8-20.4l-0.8-1.6c-1.6-1.1-11.5-6.7-36.6-6.7
		C29.6,186.5,0,198.7,0,257.8s33.9,67.8,62.4,67.8c23.6,0,38-10.1,38-10.1l0.7-1.5V248L99.1,246L99.1,246z M317.7,191.5h-24.3l-2,2
		v47h-37.9v-47l-2-2H227l-2,2v127.3l2,2h24.3l2-2v-54.4h37.9l-0.1,54.4l2,2h24.3l2-2l0.1-127.3L317.7,191.5L317.7,191.5z
		 M128.2,194.4c-8.7,0-15.7,7.1-15.7,15.8s7,15.9,15.7,15.9c8.7,0,15.7-7.1,15.7-15.9C143.8,201.5,136.8,194.4,128.2,194.4z
		 M142.1,235.2l-2-2h-24.3l-2.1,2.3c0,0,0,70.7,0,84.2c0,2.5,1.5,3.2,3.5,3.2c0,0,10.3,0,21.9,0c2.4,0,3-1.2,3-3.3
		c0-4.5,0-22.2,0-25.6C142.2,290.7,142.2,235.2,142.1,235.2L142.1,235.2z M411.8,233.4h-24.1l-2,2v62.4c0,0-6.1,4.5-14.9,4.5
		c-8.7,0-11-3.9-11-12.5c0-8.5,0-54.5,0-54.5l-2-2h-24.5l-2,2c0,0,0,33.2,0,58.6s14.1,31.5,33.5,31.5c15.9,0,28.8-8.8,28.8-8.8
		l0.9,5.2l1.8,1.1h15.5l2-2l0.1-85.5L411.8,233.4L411.8,233.4z M478,230.5c-13.7,0-23,6.1-23,6.1v-43.1l-2-2h-24.4l-2,2l-0.1,127.3
		l2,2h17l1.8-1.1l1-5.9c0,0,10,9.5,28.9,9.5c22.2,0,34.9-11.3,34.9-50.5C512,235.7,491.7,230.5,478,230.5L478,230.5z M468.4,302.3
		c-8.4-0.3-14-4.1-14-4.1v-40.3c0,0,5.6-3.4,12.5-4.1c8.7-0.8,17.1,1.9,17.1,22.6C483.9,298.3,480.2,302.6,468.4,302.3L468.4,302.3z
		 M212.4,301.8c-1.1,0-3.8,0.4-6.6,0.4c-8.9,0-12-4.2-12-9.6c0-5.4,0-35.8,0-35.8h18.3l2-2v-19.6l-2-2h-18.3l0-24.1l-1.5-1.4h-24.9
		l-1.5,1.4v24.9l-13.3,3.3l-1.4,1.9v15.7l2,2h12.7c0,0,0,16.4,0,37.7c0,28,19.6,30.7,32.9,30.7c6,0,13.3-2,14.5-2.4l1.1-1.8l0-17.2
		L212.4,301.8L212.4,301.8z"/>
</g>
</svg>
